HIERARCHY
ROOT hip
{
	OFFSET 0.000000 0.000000 0.000000 
	CHANNELS 6 Xposition Yposition Zposition Xrotation Zrotation Yrotation
	JOINT abdomen
	{
		OFFSET 0.000000 3.402643 0.000000 
		CHANNELS 3 Xrotation Zrotation Yrotation
		JOINT chest
		{
			OFFSET 0.000000 8.438565 -0.680529 
			CHANNELS 3 Xrotation Zrotation Yrotation
			JOINT neck
			{
				OFFSET 0.000000 10.207942 -0.272212 
				CHANNELS 3 Xrotation Zrotation Yrotation
				JOINT head
				{
					OFFSET 0.000000 3.130431 0.000000 
					CHANNELS 3 Xrotation Zrotation Yrotation
					End Site
					{
						OFFSET 0.000000 3.130435 0.000000 
					}
				}
			}
			JOINT lCollar
			{
				OFFSET 3.470700 6.669187 -0.816635 
				CHANNELS 3 Yrotation Zrotation Xrotation
				JOINT lShldr
				{
					OFFSET 3.198488 0.000000 0.000000 
					CHANNELS 3 Zrotation Yrotation Xrotation
					JOINT lForeArm
					{
						OFFSET 10.139888 0.000000 0.000000 
						CHANNELS 3 Yrotation Zrotation Xrotation
						JOINT lHand
						{
							OFFSET 8.370511 0.000000 0.000000 
							CHANNELS 3 Zrotation Yrotation Xrotation
							End Site
							{
								OFFSET 4.083176 0.000000 0.000000 
							}
						}
					}
				}
			}
			JOINT rCollar
			{
				OFFSET -3.470700 6.669187 -0.816635 
				CHANNELS 3 Yrotation Zrotation Xrotation
				JOINT rShldr
				{
					OFFSET -3.198488 0.000000 0.000000 
					CHANNELS 3 Zrotation Yrotation Xrotation
					JOINT rForeArm
					{
						OFFSET -10.139888 0.000000 0.000000 
						CHANNELS 3 Yrotation Zrotation Xrotation
						JOINT rHand
						{
							OFFSET -8.370511 0.000000 0.000000 
							CHANNELS 3 Zrotation Yrotation Xrotation
							End Site
							{
								OFFSET -4.083176 0.000000 0.000000 
							}
						}
					}
				}
			}
		}
	}
	JOINT lThigh
	{
		OFFSET 5.308129 -1.633274 1.361059 
		CHANNELS 3 Xrotation Zrotation Yrotation
		JOINT lShin
		{
			OFFSET -2.041588 -20.007561 0.000000 
			CHANNELS 3 Xrotation Zrotation Yrotation
			JOINT lFoot
			{
				OFFSET 0.000000 -19.190928 -1.224953 
				CHANNELS 3 Xrotation Yrotation Zrotation
				End Site
				{
					OFFSET 0.000000 -2.449906 4.627600 
				}
			}
		}
	}
	JOINT rThigh
	{
		OFFSET -5.308129 -1.633274 1.361059 
		CHANNELS 3 Xrotation Zrotation Yrotation
		JOINT rShin
		{
			OFFSET 2.041588 -20.007561 0.000000 
			CHANNELS 3 Xrotation Zrotation Yrotation
			JOINT rFoot
			{
				OFFSET 0.000000 -19.190928 -1.224953 
				CHANNELS 3 Xrotation Yrotation Zrotation
				End Site
				{
					OFFSET 0.000000 -2.449906 4.627600 
				}
			}
		}
	}
}
MOTION
Frames: 14
Frame Time: 0.033333
-3.626519 43.180389 76.416321 -9.501953 -5.800781 118.642570 14.970702 3.867188 5.947266 -8.447266 4.218750 6.162828 -5.273437 -3.710938 22.968119 5.097656 -10.468750 22.646482 3.515625 0.791016 -0.058594 -69.697266 4.609375 3.565239 -97.617188 -2.861328 -28.319826 7.470724 -119.316414 -5.223359 5.449219 1.660156 -0.166299 63.300785 3.251953 21.563053 66.513672 3.330078 -42.012287 10.908203 5.107261 1.026197 -33.590424 32.832535 25.592022 30.666546 -1.388697 -2.243768 -3.633141 -3.771195 -7.621047 -13.328279 -12.770432 -15.468889 34.217464 0.863516 1.749271 -26.001129 -1.155089 6.838808 
-4.015249 43.040363 76.465363 -9.843750 -7.392579 116.688194 15.439453 3.164063 6.464844 -8.974609 4.052734 6.846394 -7.216797 -3.564453 23.515018 5.273437 -10.644531 23.173828 3.867188 0.615234 -0.058699 -68.935547 4.609375 2.539063 -98.349609 -2.988281 -29.472147 9.023445 -119.589851 -6.590524 5.449219 1.660156 -0.166299 62.861332 4.707031 21.534004 66.376953 3.271485 -41.260323 10.576172 5.595703 1.182593 -34.989677 33.904198 27.127588 31.688833 -1.110997 -2.574867 -3.911352 -2.962757 -7.310135 -16.814781 -13.796465 -16.257326 36.140549 0.693251 2.132515 -25.861357 1.543096 8.208361 
-4.563275 42.719452 76.568443 -10.205078 -9.501953 114.226906 15.908204 2.128906 6.904660 -9.677735 4.062500 7.519532 -9.697266 -3.076172 24.248047 5.449219 -10.820313 23.699341 4.042969 0.263672 -0.029342 -67.841797 4.384766 1.065200 -99.501953 -2.958984 -30.849831 10.283205 -119.687492 -7.576845 5.449219 1.308594 -0.127176 62.207035 6.455079 21.143679 66.435547 3.408203 -40.967091 10.234376 5.957031 1.163123 -37.772804 35.212536 28.535011 34.351505 -1.111723 -2.526936 -4.528700 -2.104835 -7.369644 -22.650932 -15.442952 -16.386471 40.178658 0.348028 2.365510 -25.502041 4.002901 9.405108 
-5.257549 42.143372 76.718094 -10.380859 -12.490233 111.406250 16.367188 0.537109 7.353516 -10.390625 3.535156 8.378904 -12.871094 -2.402344 24.814047 5.800781 -10.820313 24.402460 4.570313 0.087891 -0.019546 -66.308586 3.769531 -0.956388 -100.791016 -3.017578 -31.914066 10.595727 -119.707031 -7.957701 5.615234 1.132813 -0.107422 61.728519 8.789063 20.489775 67.041016 3.251953 -39.805244 9.687500 5.654297 0.957031 -42.166458 36.801559 29.451643 38.579075 -0.770748 -2.810110 -5.506104 -1.147169 -7.177439 -30.403812 -17.220421 -15.967422 46.150887 -0.009890 2.509871 -25.018036 4.527524 9.529613 
-6.045011 41.261990 76.887871 -10.380859 -15.830077 109.111328 16.669922 -1.005859 7.646313 -11.103516 2.666016 8.876953 -16.044922 -1.552734 25.390621 5.800781 -10.468750 25.105648 4.921875 -0.087891 -0.009766 -64.218750 2.539063 -3.681208 -102.089844 -2.929688 -32.626457 10.371096 -119.335930 -7.723360 5.615235 0.605469 -0.058697 61.162109 11.533203 20.080076 67.968750 3.281250 -39.482422 8.632813 5.664063 0.899403 -48.134190 38.885002 29.054972 44.202557 -0.609149 -3.030920 -6.780869 -0.042588 -7.122817 -38.579384 -19.097607 -15.320449 53.174980 -0.361130 2.660017 -25.342785 0.227921 7.534985 
-6.849670 40.066528 77.073639 -10.380859 -18.994141 107.343750 17.167969 -2.167969 7.860959 -11.816406 1.621094 9.208985 -19.042969 -0.683594 25.615116 5.273438 -10.117033 25.633402 4.921875 0.087891 -0.019531 -61.777340 1.201172 -6.904090 -103.349609 -2.939453 -33.554180 9.990245 -118.955078 -7.352295 5.791016 0.253906 -0.029297 59.941406 14.482422 18.886719 68.769531 3.261719 -39.248604 9.160156 5.664063 0.927734 -55.534470 41.224094 28.004583 50.713264 -0.258311 -3.203233 -8.631191 0.589731 -6.884253 -46.740765 -21.253824 -15.484785 60.345089 -0.878626 3.403825 -26.680420 -6.655407 3.766649 
-7.604688 38.586624 77.258194 -10.205079 -21.621092 106.337891 18.046875 -3.056641 7.792969 -12.539062 0.400391 9.355527 -21.503906 -0.166016 25.820309 4.570313 -9.765626 25.994438 4.746094 0.263672 -0.039062 -59.228519 -0.732422 -10.566406 -104.423828 -2.968750 -34.677227 9.277364 -118.544930 -6.746860 5.966797 -0.107422 -0.165997 58.251957 17.636721 16.995148 69.599617 3.193359 -38.623589 10.234376 5.957031 1.163123 -63.462971 43.576523 25.340025 57.904110 -0.024642 -3.447508 -10.837601 1.001432 -6.733745 -53.608120 -23.921698 -15.007813 66.841881 -1.171870 3.464453 -27.544783 -9.655733 2.063304 
-8.276761 36.896191 77.431999 -10.019531 -23.916016 105.566406 19.111326 -3.740235 7.607422 -12.548829 -0.654297 9.355468 -23.613281 -0.166016 25.820282 3.515625 -9.414063 26.346060 4.570313 0.781250 -0.078258 -56.650391 -2.968750 -14.414064 -105.000000 -3.046875 -35.917446 9.209007 -118.183594 -6.903138 6.142578 -0.458984 -0.126875 55.556641 20.839846 14.531248 71.025391 3.261719 -39.980469 10.908203 4.755709 1.026139 -72.029572 45.426960 22.260803 64.735046 0.599150 -3.577242 -12.450757 1.497092 -6.897051 -60.620724 -27.223303 -14.331518 73.338341 -1.415995 3.560637 -27.863949 -8.139496 2.673098 
-8.852843 35.107082 77.594475 -9.501953 -25.498047 105.107414 20.703127 -4.248047 7.460214 -12.558593 -1.708984 9.355178 -25.371094 -0.156250 25.644529 2.285156 -8.886719 26.533205 4.042969 0.957031 -0.087891 -54.277340 -5.009766 -18.516479 -105.498047 -3.173828 -37.538521 9.746106 -118.046867 -7.284011 6.494141 -0.810547 -0.078125 52.167969 23.994141 11.478580 72.158203 3.339844 -41.396484 10.888672 3.769531 0.664706 -80.319221 47.408104 18.180933 71.386238 1.096235 -4.053831 -13.361877 2.457331 -6.812987 -67.795715 -30.736835 -13.329795 80.175949 -1.933907 3.397356 -28.469566 -4.788925 4.540295 
-9.300975 33.365788 77.737907 -8.798827 -26.367186 104.224182 23.007813 -4.921875 7.264787 -12.216798 -2.421875 9.365234 -27.294922 -0.322266 25.458950 1.406250 -8.535156 26.718750 3.857422 1.503906 0.058337 -52.070309 -7.421875 -22.706341 -105.507813 -3.222656 -39.218201 11.601568 -118.554695 -9.032015 6.669922 -1.162109 -0.039063 48.818356 27.177734 7.919922 72.675781 3.359375 -42.216801 10.878907 3.417969 0.664646 -87.544739 48.833317 14.145216 77.527596 1.407711 -3.915694 -13.708401 2.606216 -6.713924 -74.443703 -33.867569 -11.605122 86.686165 -2.299881 3.503826 -29.753551 -2.409087 6.008146 
-9.626886 31.757322 77.867828 -7.910156 -26.728518 103.525391 25.654297 -5.595703 7.080079 -11.699220 -3.125000 9.384766 -29.052736 -0.488281 25.273436 0.527344 -8.173817 26.893179 3.681641 2.197266 0.019531 -50.292969 -9.716797 -26.730165 -105.263672 -3.242188 -41.377228 14.589858 -119.404305 -11.600305 7.021484 -1.689453 0.029585 45.664063 29.482422 4.252853 72.656250 3.408203 -42.587601 11.230470 3.417969 0.684178 -93.943420 49.978634 9.918360 82.462906 1.768390 -3.819638 -13.387650 2.789182 -6.630267 -80.073769 -36.344482 -9.465031 92.292137 -2.656148 3.499761 -31.060078 -0.304379 6.907574 
-9.862662 30.342062 77.978073 -7.207031 -26.728518 102.915527 28.681641 -5.839843 6.629867 -11.347656 -3.662110 9.393908 -30.625000 -0.644531 24.912109 -0.175781 -7.998046 26.894531 3.505859 2.724609 -0.000464 -48.808594 -11.767578 -30.460974 -104.990234 -3.271485 -43.544365 18.203136 -120.634758 -14.451763 7.197265 -2.207031 0.107422 42.880859 31.406248 0.337120 72.783203 3.291016 -42.598217 11.406251 3.242188 0.693913 -99.698662 50.315361 5.679042 86.502548 1.934297 -3.819724 -12.821067 3.521239 -6.660471 -85.019249 -38.115070 -7.210086 97.365471 -3.368652 3.552743 -32.187946 0.514522 7.945746 
-10.065506 29.141356 78.078476 -6.865235 -26.728518 102.568359 31.513670 -6.132813 6.367188 -11.181641 -4.189453 9.227802 -31.669924 -0.439453 24.394558 -0.878906 -7.822267 26.728518 3.320312 3.261719 0.146484 -47.861328 -13.457031 -33.527660 -104.687500 -3.310547 -45.702560 21.640635 -121.826180 -17.293453 7.548829 -2.753906 0.020000 40.820313 33.056641 -3.134766 71.982422 3.398438 -42.197262 12.285156 3.232422 0.752505 -104.911224 50.243462 1.448796 89.839256 2.089532 -3.810730 -12.055406 4.194892 -5.924719 -89.091652 -39.189449 -5.497402 101.067703 -3.691154 3.053975 -32.593063 1.798297 8.282811 
-10.231387 28.170691 78.175064 -6.503906 -26.367188 102.646477 34.169922 -6.035156 6.024365 -11.005860 -4.365234 9.052735 -32.714840 -0.419922 24.042927 -1.582031 -7.294922 26.551495 3.320313 3.613281 0.126953 -47.216797 -15.283204 -36.074215 -104.355469 -3.349610 -47.841228 25.380873 -123.457039 -20.252289 7.900391 -3.105469 0.078654 39.218750 34.335941 -6.132812 71.308586 3.369141 -41.806641 12.812500 2.431551 0.439831 -108.937675 49.340935 -2.309745 92.835854 2.069350 -3.927668 -12.197375 5.472421 -5.863164 -92.223457 -39.881008 -3.520588 104.039116 -3.886597 3.406090 -32.917480 1.609507 8.814216 
